<?xml version="1.0" encoding="UTF-8" standalone="no"?>
<!-- Created with Inkscape (http://www.inkscape.org/) -->

<svg
   xmlns:dc="http://purl.org/dc/elements/1.1/"
   xmlns:cc="http://creativecommons.org/ns#"
   xmlns:rdf="http://www.w3.org/1999/02/22-rdf-syntax-ns#"
   xmlns:svg="http://www.w3.org/2000/svg"
   xmlns="http://www.w3.org/2000/svg"
   xmlns:sodipodi="http://sodipodi.sourceforge.net/DTD/sodipodi-0.dtd"
   xmlns:inkscape="http://www.inkscape.org/namespaces/inkscape"
   width="210mm"
   height="297mm"
   viewBox="0 0 210 297"
   version="1.1"
   id="svg8"
   sodipodi:docname="lt-source.svg"
   inkscape:version="0.92.3 (2405546, 2018-03-11)">
  <defs
     id="defs2">
    <clipPath
       clipPathUnits="userSpaceOnUse"
       id="clipPath1068">
      <path
         style="opacity:1;fill:#ffffff;fill-opacity:1;stroke:none;stroke-width:0.61991096;stroke-linecap:round;stroke-miterlimit:4;stroke-dasharray:none;stroke-dashoffset:0;stroke-opacity:1;paint-order:normal"
         d="M 75.513771,60.845745 A 51.64156,31.179826 6.558592 0 1 44.957026,63.255546 51.64156,31.179826 6.558592 0 1 15.774262,54.007647 32.550179,21.846742 6.558592 0 0 44.084375,70.845704 32.550179,21.846742 6.558592 0 0 75.513771,60.845745 Z"
         id="path1070"
         inkscape:connector-curvature="0" />
    </clipPath>
  </defs>
  <sodipodi:namedview
     id="base"
     pagecolor="#ffffff"
     bordercolor="#666666"
     borderopacity="1.0"
     inkscape:pageopacity="0.0"
     inkscape:pageshadow="2"
     inkscape:zoom="0.98994949"
     inkscape:cx="402.22094"
     inkscape:cy="530.52554"
     inkscape:document-units="mm"
     inkscape:current-layer="layer1"
     showgrid="false"
     inkscape:snap-global="false"
     inkscape:window-width="1366"
     inkscape:window-height="717"
     inkscape:window-x="0"
     inkscape:window-y="25"
     inkscape:window-maximized="1"
     showguides="false" />
  <metadata
     id="metadata5">
    <rdf:RDF>
      <cc:Work
         rdf:about="">
        <dc:format>image/svg+xml</dc:format>
        <dc:type
           rdf:resource="http://purl.org/dc/dcmitype/StillImage" />
        <dc:title></dc:title>
      </cc:Work>
    </rdf:RDF>
  </metadata>
  <g
     inkscape:label="Layer 1"
     inkscape:groupmode="layer"
     id="layer1">
    <path
       style="fill:#297dab;fill-opacity:1;stroke:none;stroke-width:0.26458332px;stroke-linecap:butt;stroke-linejoin:miter;stroke-opacity:1"
       d="m 74.839287,164.33038 29.860123,-34.39583 17.76488,37.79762 z"
       id="path836"
       inkscape:connector-curvature="0"
       sodipodi:nodetypes="cccc" />
    <path
       inkscape:connector-curvature="0"
       style="fill:#4a8db1;fill-opacity:1;stroke:none;stroke-width:0.26458332px;stroke-linecap:butt;stroke-linejoin:miter;stroke-opacity:1"
       d="m 99.864707,135.50442 -25.025347,28.82615 36.01537,2.57245 c -4.78066,-8.8237 -2.96052,-18.07098 -10.990023,-31.3986 z"
       id="path1072" />
    <path
       inkscape:connector-curvature="0"
       id="path1053"
       d="m 75.595239,153.82264 -16.44582,-16.25297 -45.542274,16.63095 7.168691,11.71726 33.31333,-14.36309 10.120505,10.9613 z"
       style="fill:#4a8db1;fill-opacity:1;stroke:none;stroke-width:0.27946389px;stroke-linecap:butt;stroke-linejoin:miter;stroke-opacity:1" />
    <path
       inkscape:connector-curvature="0"
       id="path1051"
       d="m 123.44211,170.25885 36.86281,-25.29365 34.00639,31.09856 -8.91528,7.09094 -25.92912,-20.55523 -23.84676,13.2682 z"
       style="fill:#4a8db1;fill-opacity:1;stroke:none;stroke-width:0.2833848px;stroke-linecap:butt;stroke-linejoin:miter;stroke-opacity:1" />
    <path
       style="fill:#297dab;fill-opacity:1;stroke:none;stroke-width:0.26458332px;stroke-linecap:butt;stroke-linejoin:miter;stroke-opacity:1"
       d="m 71.059525,157.52681 -14.741071,-16.25297 -40.821428,16.63095 6.425595,11.71726 29.860119,-14.36309 9.071428,10.9613 z"
       id="path1047"
       inkscape:connector-curvature="0" />
    <path
       style="fill:#297dab;fill-opacity:1;stroke:none;stroke-width:0.26458332px;stroke-linecap:butt;stroke-linejoin:miter;stroke-opacity:1"
       d="m 123.44211,173.92577 34.89676,-23.29093 32.19268,28.63621 -8.43979,6.52948 -24.54621,-18.92769 -22.57491,12.21764 z"
       id="path1049"
       inkscape:connector-curvature="0" />
    <ellipse
       transform="matrix(0.19446261,0.98090993,-0.92539165,0.37901225,0,0)"
       style="opacity:1;fill:#595959;fill-opacity:1;stroke:none;stroke-width:0.3198019;stroke-linecap:round;stroke-miterlimit:4;stroke-dasharray:none;stroke-dashoffset:0;stroke-opacity:1;paint-order:normal"
       id="ellipse830"
       cx="209.85803"
       cy="-7.5691547"
       rx="27.5492"
       ry="19.701378" />
    <ellipse
       ry="12.346622"
       rx="19.393229"
       cy="-14.167348"
       cx="213.7374"
       id="ellipse859"
       style="opacity:1;fill:#297dab;fill-opacity:1;stroke:none;stroke-width:0.2124112;stroke-linecap:round;stroke-miterlimit:4;stroke-dasharray:none;stroke-dashoffset:0;stroke-opacity:1;paint-order:normal"
       transform="matrix(0.16909647,0.9855995,-0.90388583,0.42777378,0,0)" />
    <rect
       style="opacity:1;fill:#297dab;fill-opacity:1;stroke:none;stroke-width:0.56499994;stroke-linecap:round;stroke-miterlimit:4;stroke-dasharray:none;stroke-dashoffset:0;stroke-opacity:1;paint-order:normal"
       id="rect832"
       width="82.776787"
       height="17.008928"
       x="65.600731"
       y="198.29753"
       rx="0"
       ry="8.5044641"
       transform="rotate(5.3811617)" />
    <rect
       transform="rotate(5.3811617)"
       ry="8.5044641"
       rx="0"
       y="196.19017"
       x="65.402214"
       height="17.008928"
       width="82.776787"
       id="rect1166"
       style="opacity:1;fill:#4a8db1;fill-opacity:1;stroke:none;stroke-width:0.56499994;stroke-linecap:round;stroke-miterlimit:4;stroke-dasharray:none;stroke-dashoffset:0;stroke-opacity:1;paint-order:normal" />
    <ellipse
       style="opacity:1;fill:#297dab;fill-opacity:1;stroke:none;stroke-width:0.59710711;stroke-linecap:round;stroke-miterlimit:4;stroke-dasharray:none;stroke-dashoffset:0;stroke-opacity:1;paint-order:normal"
       id="path826"
       cx="97.366661"
       cy="184.21193"
       rx="58.208332"
       ry="32.505951" />
    <path
       inkscape:connector-curvature="0"
       style="opacity:1;fill:#000000;fill-opacity:0.31282052;stroke:none;stroke-width:0.59710711;stroke-linecap:round;stroke-miterlimit:4;stroke-dasharray:none;stroke-dashoffset:0;stroke-opacity:1;paint-order:normal"
       d="m 154.60503,189.96673 c -21.4996,15.58848 -52.8709,22.27487 -75.226412,25.13903 a 58.208333,32.505951 0 0 0 17.98805,1.6123 58.208333,32.505951 0 0 0 57.238362,-26.75133 z"
       id="ellipse1087" />
    <path
       inkscape:connector-curvature="0"
       style="opacity:1;fill:#c8c8c8;fill-opacity:0.21025641;stroke:none;stroke-width:0.59710711;stroke-linecap:round;stroke-miterlimit:4;stroke-dasharray:none;stroke-dashoffset:0;stroke-opacity:1;paint-order:normal"
       d="m 79.316608,153.35036 a 58.208333,32.505951 0 0 0 -40.158273,30.86168 58.208333,32.505951 0 0 0 0.737939,5.02346 32.505951,58.208333 47.48794 0 0 22.361943,-15.45797 32.505951,58.208333 47.48794 0 0 17.058391,-20.42717 z"
       id="ellipse1082" />
    <ellipse
       ry="19.078033"
       rx="30.551815"
       cy="-170.49779"
       cx="229.78777"
       id="ellipse828"
       style="opacity:1;fill:#595959;fill-opacity:1;stroke:none;stroke-width:0.33140841;stroke-linecap:round;stroke-miterlimit:4;stroke-dasharray:none;stroke-dashoffset:0;stroke-opacity:1;paint-order:normal"
       transform="matrix(-0.10717339,0.99424035,-0.99262817,0.12119948,0,0)" />
    <path
       style="opacity:1;fill:#666666;fill-opacity:1;stroke:none;stroke-width:1.2361269;stroke-linecap:round;stroke-miterlimit:4;stroke-dasharray:none;stroke-dashoffset:0;stroke-opacity:1;paint-order:normal"
       d="M 560.17188 670.5293 A 69.151766 117.26445 13.574385 0 0 558.94727 670.58008 A 69.151766 117.26445 13.574385 0 0 474.99805 794.125 A 69.151766 117.26445 13.574385 0 0 500.10938 889.08789 C 491.80007 834.56482 486.55719 726.83332 560.17188 670.5293 z "
       transform="scale(0.26458333)"
       id="ellipse1142" />
    <ellipse
       transform="matrix(-0.10717339,0.99424035,-0.99262817,0.12119948,0,0)"
       style="opacity:1;fill:#297dab;fill-opacity:1;stroke:none;stroke-width:0.19942214;stroke-linecap:round;stroke-miterlimit:4;stroke-dasharray:none;stroke-dashoffset:0;stroke-opacity:1;paint-order:normal"
       id="ellipse838"
       cx="229.90875"
       cy="-171.4903"
       rx="18.384291"
       ry="11.480042" />
    <path
       style="fill:#2fb09e;fill-opacity:1;stroke:none;stroke-width:0.26458332px;stroke-linecap:butt;stroke-linejoin:miter;stroke-opacity:1"
       d="m 37.495241,193.13217 c 0,0 29.104168,20.78869 55.940477,19.27678 26.836312,-1.5119 43.467262,-6.42559 43.467262,-6.42559 1.83584,23.67565 -99.114725,25.26551 -99.407739,-12.85119 z"
       id="path834"
       inkscape:connector-curvature="0"
       sodipodi:nodetypes="cscc" />
    <path
       style="opacity:1;fill:#e9e9e9;fill-opacity:1;stroke:none;stroke-width:2.34297061;stroke-linecap:round;stroke-miterlimit:4;stroke-dasharray:none;stroke-dashoffset:0;stroke-opacity:1;paint-order:normal"
       d="M 303.21289 759.5293 A 123.0243 82.570363 8.441408 0 0 257.95117 764.51953 A 123.0243 82.570363 6.558592 0 0 326.61719 787.76367 A 123.0243 82.570363 6.558592 0 0 388.16992 783.92773 A 123.0243 82.570363 8.441408 0 0 324.90039 761.42188 A 123.0243 82.570363 8.441408 0 0 303.21289 759.5293 z "
       transform="scale(0.26458333)"
       id="path1180" />
    <path
       style="opacity:1;fill:#ffffff;fill-opacity:1;stroke:none;stroke-width:0.61991096;stroke-linecap:round;stroke-miterlimit:4;stroke-dasharray:none;stroke-dashoffset:0;stroke-opacity:1;paint-order:normal"
       d="m 117.84711,198.42911 a 51.64156,31.179826 6.558592 0 1 -30.556748,2.4098 51.64156,31.179826 6.558592 0 1 -29.182765,-9.2479 32.55018,21.846742 6.558592 0 0 28.310113,16.83805 32.55018,21.846742 6.558592 0 0 31.4294,-9.99995 z"
       id="path861"
       inkscape:connector-curvature="0" />
    <ellipse
       transform="matrix(-0.36084988,0.93262391,-0.99017392,-0.13984137,0,0)"
       style="opacity:1;fill:#d2d2d2;fill-opacity:1;stroke:none;stroke-width:0.13912882;stroke-linecap:round;stroke-miterlimit:4;stroke-dasharray:none;stroke-dashoffset:0;stroke-opacity:1;paint-order:normal"
       id="ellipse1021"
       cx="165.46425"
       cy="-177.14691"
       rx="12.825981"
       ry="8.0091639" />
    <ellipse
       ry="4.8194456"
       rx="7.7179236"
       cy="-177.56361"
       cx="165.51505"
       id="ellipse1023"
       style="opacity:1;fill:#52a7d6;fill-opacity:1;stroke:none;stroke-width:0.08371957;stroke-linecap:round;stroke-miterlimit:4;stroke-dasharray:none;stroke-dashoffset:0;stroke-opacity:1;paint-order:normal"
       transform="matrix(-0.36084988,0.93262391,-0.99017392,-0.13984137,0,0)" />
    <ellipse
       ry="8.0091639"
       rx="12.825981"
       cy="58.360863"
       cx="165.78383"
       id="ellipse1025"
       style="opacity:1;fill:#d2d2d2;fill-opacity:1;stroke:none;stroke-width:0.13912882;stroke-linecap:round;stroke-miterlimit:4;stroke-dasharray:none;stroke-dashoffset:0;stroke-opacity:1;paint-order:normal"
       transform="matrix(0.06641108,0.99779235,0.9868392,0.16170466,0,0)" />
    <ellipse
       transform="matrix(0.06641108,0.99779235,0.9868392,0.16170466,0,0)"
       style="opacity:1;fill:#52a7d6;fill-opacity:1;stroke:none;stroke-width:0.08371957;stroke-linecap:round;stroke-miterlimit:4;stroke-dasharray:none;stroke-dashoffset:0;stroke-opacity:1;paint-order:normal"
       id="ellipse1027"
       cx="165.83463"
       cy="57.944168"
       rx="7.7179236"
       ry="4.8194456" />
    <path
       inkscape:connector-curvature="0"
       style="opacity:1;fill:#124044;fill-opacity:1;stroke:none;stroke-width:0.13730271;stroke-linecap:round;stroke-miterlimit:4;stroke-dasharray:none;stroke-dashoffset:0;stroke-opacity:1;paint-order:normal"
       d="m 75.523041,170.98442 -3.379639,0.90537 a 7.8377665,4.6219924 78.770137 0 1 0.76791,3.31608 l 3.381706,-0.90641 a 13.025141,7.6810276 78.770138 0 0 -0.769977,-3.31504 z m -12.068515,3.2334 -2.618961,0.70176 a 13.025141,7.6810276 78.770138 0 0 0.707967,3.3321 l 2.619995,-0.70229 a 7.8377665,4.6219924 78.770137 0 1 -0.709001,-3.33157 z"
       id="ellipse1029" />
    <path
       inkscape:connector-curvature="0"
       style="opacity:1;fill:#124044;fill-opacity:1;stroke:none;stroke-width:0.13730271;stroke-linecap:round;stroke-miterlimit:4;stroke-dasharray:none;stroke-dashoffset:0;stroke-opacity:1;paint-order:normal"
       d="m 109.22796,174.94284 a 7.6810276,13.025141 28.574384 0 0 -1.45986,3.02565 7.6810276,13.025141 28.574384 0 0 -0.0868,0.2403 l 3.29851,1.33738 a 4.6219924,7.8377665 28.574386 0 1 0.34106,-1.02629 4.6219924,7.8377665 28.574386 0 1 1.14515,-2.26446 z m 11.70264,4.74441 a 4.6219924,7.8377665 28.574386 0 1 -0.0656,0.18087 4.6219924,7.8377665 28.574386 0 1 -1.65674,3.01377 l 2.55281,1.03508 a 7.6810276,13.025141 28.574384 0 0 1.66192,-3.21945 z"
       id="ellipse1039" />
    <path
       inkscape:connector-curvature="0"
       id="path1057"
       d="m 117.84711,198.42911 a 51.64156,31.179826 6.558592 0 1 -30.556748,2.4098 51.64156,31.179826 6.558592 0 1 -29.182765,-9.2479 32.55018,21.846742 6.558592 0 0 28.310113,16.83805 32.55018,21.846742 6.558592 0 0 31.4294,-9.99995 z"
       style="opacity:1;fill:#ffffff;fill-opacity:1;stroke:none;stroke-width:0.61991096;stroke-linecap:round;stroke-miterlimit:4;stroke-dasharray:none;stroke-dashoffset:0;stroke-opacity:1;paint-order:normal" />
    <path
       style="opacity:1;fill:#b4b4b4;fill-opacity:1;stroke:none;stroke-width:2.34297061;stroke-linecap:round;stroke-miterlimit:4;stroke-dasharray:none;stroke-dashoffset:0;stroke-opacity:1;paint-order:normal"
       d="M 219.61914 724.12305 A 123.0243 82.570363 6.558592 0 0 285.45508 777.91602 C 270.34296 768.86595 254.16351 750.94261 241.74023 735.2832 A 195.1807 117.84501 6.558592 0 1 219.61914 724.12305 z M 445.40625 749.96875 A 195.1807 117.84501 6.558592 0 1 426.31445 754.85156 C 419.5663 763.03729 411.65858 771.94256 404.06055 778.81055 A 123.0243 82.570363 6.558592 0 0 445.40625 749.96875 z "
       transform="scale(0.26458333)"
       id="path1185" />
    <path
       style="fill:none;stroke:#000000;stroke-width:0.26458332px;stroke-linecap:butt;stroke-linejoin:miter;stroke-opacity:1"
       d="m 16.971615,58.461946 3.875408,-2.271792 0.133635,7.349914 6.013565,-4.944489 1.336347,8.819896 6.013563,-6.949008 2.004523,10.156242 5.479024,-8.953529 4.543583,10.557145 4.409946,-9.488066 5.479026,8.68626 3.34087,-9.087165 4.142676,7.082642 2.138156,-7.750816 5.479026,4.142677 1.469983,-4.81085 3.474503,1.069078"
       id="path1064"
       inkscape:connector-curvature="0"
       clip-path="url(#clipPath1068)"
       transform="translate(42.333335,137.58336)" />
    <path
       style="opacity:1;fill:#8b8b8b;fill-opacity:0.34871796;stroke:none;stroke-width:1.2361269;stroke-linecap:round;stroke-miterlimit:4;stroke-dasharray:none;stroke-dashoffset:0;stroke-opacity:1;paint-order:normal"
       d="M 578.68164 723.44336 C 584.06563 769.5211 568.82618 815.83263 550.95117 852.23438 A 41.61148 70.562873 13.574386 0 0 593.31641 780.12695 A 41.61148 70.562873 13.574386 0 0 578.68164 723.44336 z "
       transform="scale(0.26458333)"
       id="path1154" />
    <path
       style="opacity:1;fill:#666666;fill-opacity:1;stroke:none;stroke-width:1.2361269;stroke-linecap:round;stroke-miterlimit:4;stroke-dasharray:none;stroke-dashoffset:0;stroke-opacity:1;paint-order:normal"
       d="M 151.24414 669.98633 A 105.9745 71.802307 88.836211 0 0 111.80859 795.40234 A 105.9745 71.802307 88.836211 0 0 137.10742 850.16211 C 122.93307 799.075 113.8178 726.268 151.24414 669.98633 z "
       transform="scale(0.26458333)"
       id="path1160" />
    <path
       style="fill:#17554c;fill-opacity:1;stroke:none;stroke-width:0.99999994px;stroke-linecap:butt;stroke-linejoin:miter;stroke-opacity:1"
       d="M 230.85742 811.51953 A 19.285715 19.285715 0 0 0 216.70312 817.73242 C 227.15827 822.08057 238.35132 825.83283 250.05273 829.00586 A 19.285715 19.285715 0 0 0 230.85742 811.51953 z M 414.85742 825.51953 A 19.285715 19.285715 0 0 0 395.97461 840.98633 C 408.55783 839.92153 420.68374 838.31704 432.08594 836.18945 A 19.285715 19.285715 0 0 0 414.85742 825.51953 z "
       transform="scale(0.26458333)"
       id="path1170" />
    <path
       sodipodi:nodetypes="cscc"
       inkscape:connector-curvature="0"
       id="path1194"
       d="m 31.348042,187.8405 c 0,0 32.937464,20.78869 63.308372,19.27678 30.370916,-1.5119 49.192316,-6.42559 49.192316,-6.42559 2.07764,23.67565 -112.169081,25.26551 -112.500688,-12.85119 z"
       style="fill:#279384;fill-opacity:1;stroke:none;stroke-width:0.2814686px;stroke-linecap:butt;stroke-linejoin:miter;stroke-opacity:1" />
    <path
       style="opacity:1;fill:#52a7d6;fill-opacity:1;stroke:none;stroke-width:0.31226727;stroke-linecap:round;stroke-miterlimit:4;stroke-dasharray:none;stroke-dashoffset:0;stroke-opacity:1;paint-order:normal"
       d="M 443.95508 650.41602 A 17.468948 29.623055 28.574386 0 0 420.74023 674.7207 A 17.468948 29.623055 28.574386 0 0 419.5957 678.12305 A 17.468948 29.623055 28.574386 0 0 442.8125 653.81641 A 17.468948 29.623055 28.574386 0 0 443.95508 650.41602 z "
       transform="scale(0.26458333)"
       id="ellipse1196" />
  </g>
</svg>
